<svg width="20" height="18" viewBox="0 0 20 18" fill="none" xmlns="http://www.w3.org/2000/svg">
<path d="M18.8551 16.2757L15.2352 12.8887C16.4032 11.4924 17.0369 9.76808 17.0345 7.99298C17.0345 6.41212 16.535 4.86676 15.5991 3.55232C14.6632 2.23788 13.333 1.2134 11.7767 0.608433C10.2203 0.00346321 8.50781 -0.154824 6.85563 0.153586C5.20344 0.461997 3.68581 1.22325 2.49465 2.34109C1.30349 3.45893 0.492301 4.88314 0.16366 6.43363C-0.16498 7.98412 0.00369037 9.59124 0.648341 11.0518C1.29299 12.5123 2.38467 13.7606 3.78533 14.6389C5.18598 15.5172 6.83271 15.986 8.51726 15.986C10.4088 15.9882 12.2462 15.3935 13.7341 14.2974L17.3433 17.6945C17.4422 17.7881 17.56 17.8624 17.6897 17.9132C17.8195 17.9639 17.9586 17.99 18.0992 17.99C18.2397 17.99 18.3789 17.9639 18.5086 17.9132C18.6384 17.8624 18.7561 17.7881 18.8551 17.6945C18.9549 17.6016 19.0341 17.4911 19.0881 17.3693C19.1422 17.2476 19.17 17.117 19.17 16.9851C19.17 16.8532 19.1422 16.7226 19.0881 16.6008C19.0341 16.4791 18.9549 16.3686 18.8551 16.2757ZM2.12932 7.99298C2.12932 6.80734 2.50396 5.64832 3.20588 4.66249C3.9078 3.67666 4.90546 2.9083 6.0727 2.45457C7.23994 2.00084 8.52434 1.88213 9.76348 2.11344C11.0026 2.34474 12.1408 2.91569 13.0342 3.75407C13.9276 4.59244 14.536 5.6606 14.7825 6.82347C15.0289 7.98633 14.9024 9.19167 14.4189 10.2871C13.9355 11.3825 13.1167 12.3187 12.0662 12.9774C11.0157 13.6361 9.78067 13.9877 8.51726 13.9877C6.82307 13.9877 5.19827 13.3561 4.0003 12.2319C2.80233 11.1077 2.12932 9.58288 2.12932 7.99298Z" fill="#00A859" fill-opacity="0.8"/>
<path d="M18.8551 16.2757L15.2352 12.8887C16.4032 11.4924 17.0369 9.76808 17.0345 7.99298C17.0345 6.41212 16.535 4.86676 15.5991 3.55232C14.6632 2.23788 13.333 1.2134 11.7767 0.608433C10.2203 0.00346321 8.50781 -0.154824 6.85563 0.153586C5.20344 0.461997 3.68581 1.22325 2.49465 2.34109C1.30349 3.45893 0.492301 4.88314 0.16366 6.43363C-0.16498 7.98412 0.00369037 9.59124 0.648341 11.0518C1.29299 12.5123 2.38467 13.7606 3.78533 14.6389C5.18598 15.5172 6.83271 15.986 8.51726 15.986C10.4088 15.9882 12.2462 15.3935 13.7341 14.2974L17.3433 17.6945C17.4422 17.7881 17.56 17.8624 17.6897 17.9132C17.8195 17.9639 17.9586 17.99 18.0992 17.99C18.2397 17.99 18.3789 17.9639 18.5086 17.9132C18.6384 17.8624 18.7561 17.7881 18.8551 17.6945C18.9549 17.6016 19.0341 17.4911 19.0881 17.3693C19.1422 17.2476 19.17 17.117 19.17 16.9851C19.17 16.8532 19.1422 16.7226 19.0881 16.6008C19.0341 16.4791 18.9549 16.3686 18.8551 16.2757ZM2.12932 7.99298C2.12932 6.80734 2.50396 5.64832 3.20588 4.66249C3.9078 3.67666 4.90546 2.9083 6.0727 2.45457C7.23994 2.00084 8.52434 1.88213 9.76348 2.11344C11.0026 2.34474 12.1408 2.91569 13.0342 3.75407C13.9276 4.59244 14.536 5.6606 14.7825 6.82347C15.0289 7.98633 14.9024 9.19167 14.4189 10.2871C13.9355 11.3825 13.1167 12.3187 12.0662 12.9774C11.0157 13.6361 9.78067 13.9877 8.51726 13.9877C6.82307 13.9877 5.19827 13.3561 4.0003 12.2319C2.80233 11.1077 2.12932 9.58288 2.12932 7.99298Z" stroke="black"/>
</svg>
